<svg xmlns="http://www.w3.org/2000/svg">
<symbol id="floppy">
  <rect width="1.61538" height="1.61538" fill="currentColor"/>
  <rect y="1.61523" width="1.61538" height="1.61538" fill="currentColor"/>
  <rect y="3.23096" width="1.61538" height="1.61538" fill="currentColor"/>
  <rect y="4.84619" width="1.61538" height="1.61538" fill="currentColor"/>
  <rect y="6.46143" width="1.61538" height="1.61538" fill="currentColor"/>
  <rect y="8.07715" width="1.61538" height="1.61538" fill="currentColor"/>
  <rect y="9.69238" width="1.61538" height="1.61538" fill="currentColor"/>
  <rect y="11.3076" width="1.61538" height="1.61538" fill="currentColor"/>
  <rect y="12.9229" width="1.61538" height="1.61538" fill="currentColor"/>
  <rect y="14.5386" width="1.61538" height="1.61538" fill="currentColor"/>
  <rect y="16.1538" width="1.61538" height="1.61538" fill="currentColor"/>
  <rect y="17.769" width="1.61538" height="1.61538" fill="currentColor"/>
  <rect y="19.3848" width="1.61538" height="1.61538" fill="currentColor"/>
  <rect x="17.7692" width="1.61538" height="1.61538" transform="rotate(90 17.7692 0)" fill="currentColor"/>
  <rect x="16.1539" width="1.61538" height="1.61538" transform="rotate(90 16.1539 0)" fill="currentColor"/>
  <rect x="14.5385" width="1.61538" height="1.61538" transform="rotate(90 14.5385 0)" fill="currentColor"/>
  <rect x="12.9231" width="1.61538" height="1.61538" transform="rotate(90 12.9231 0)" fill="currentColor"/>
  <rect x="11.3077" width="1.61538" height="1.61538" transform="rotate(90 11.3077 0)" fill="currentColor"/>
  <rect x="9.69232" width="1.61538" height="1.61538" transform="rotate(90 9.69232 0)" fill="currentColor"/>
  <rect x="8.0769" width="1.61538" height="1.61538" transform="rotate(90 8.0769 0)" fill="currentColor"/>
  <rect x="6.46155" width="1.61538" height="1.61538" transform="rotate(90 6.46155 0)" fill="currentColor"/>
  <rect x="4.84613" width="1.61538" height="1.61538" transform="rotate(90 4.84613 0)" fill="currentColor"/>
  <rect x="3.23077" width="1.61538" height="1.61538" transform="rotate(90 3.23077 0)" fill="currentColor"/>
  <rect x="19.3846" y="1.61523" width="1.61538" height="1.61538" transform="rotate(90 19.3846 1.61523)" fill="currentColor"/>
  <rect x="4.84613" y="3.23096" width="1.61538" height="1.61538" transform="rotate(90 4.84613 3.23096)" fill="currentColor"/>
  <rect x="4.84613" y="1.61523" width="1.61538" height="1.61538" transform="rotate(90 4.84613 1.61523)" fill="currentColor"/>
  <rect x="4.84613" y="4.84619" width="1.61538" height="1.61538" transform="rotate(90 4.84613 4.84619)" fill="currentColor"/>
  <rect x="16.1539" y="3.23096" width="1.61538" height="1.61538" transform="rotate(90 16.1539 3.23096)" fill="currentColor"/>
  <rect x="16.1539" y="1.61523" width="1.61538" height="1.61538" transform="rotate(90 16.1539 1.61523)" fill="currentColor"/>
  <rect x="16.1539" y="4.84619" width="1.61538" height="1.61538" transform="rotate(90 16.1539 4.84619)" fill="currentColor"/>
  <rect x="12.9231" y="3.23096" width="1.61538" height="1.61538" transform="rotate(90 12.9231 3.23096)" fill="currentColor"/>
  <rect x="12.9231" y="1.61523" width="1.61538" height="1.61538" transform="rotate(90 12.9231 1.61523)" fill="currentColor"/>
  <rect x="12.9231" y="4.84619" width="1.61538" height="1.61538" transform="rotate(90 12.9231 4.84619)" fill="currentColor"/>
  <rect x="16.1539" y="6.46143" width="1.61538" height="1.61538" transform="rotate(90 16.1539 6.46143)" fill="currentColor"/>
  <rect x="14.5385" y="6.46143" width="1.61538" height="1.61538" transform="rotate(90 14.5385 6.46143)" fill="currentColor"/>
  <rect x="12.9231" y="6.46143" width="1.61538" height="1.61538" transform="rotate(90 12.9231 6.46143)" fill="currentColor"/>
  <rect x="11.3077" y="6.46143" width="1.61538" height="1.61538" transform="rotate(90 11.3077 6.46143)" fill="currentColor"/>
  <rect x="9.69232" y="6.46143" width="1.61538" height="1.61538" transform="rotate(90 9.69232 6.46143)" fill="currentColor"/>
  <rect x="8.0769" y="6.46143" width="1.61538" height="1.61538" transform="rotate(90 8.0769 6.46143)" fill="currentColor"/>
  <rect x="6.46155" y="6.46143" width="1.61538" height="1.61538" transform="rotate(90 6.46155 6.46143)" fill="currentColor"/>
  <rect x="4.84613" y="6.46143" width="1.61538" height="1.61538" transform="rotate(90 4.84613 6.46143)" fill="currentColor"/>
  <rect x="17.7692" y="11.3076" width="1.61538" height="1.61538" transform="rotate(90 17.7692 11.3076)" fill="currentColor"/>
  <rect x="16.1539" y="11.3076" width="1.61538" height="1.61538" transform="rotate(90 16.1539 11.3076)" fill="currentColor"/>
  <rect x="14.5385" y="11.3076" width="1.61538" height="1.61538" transform="rotate(90 14.5385 11.3076)" fill="currentColor"/>
  <rect x="12.9231" y="11.3076" width="1.61538" height="1.61538" transform="rotate(90 12.9231 11.3076)" fill="currentColor"/>
  <rect x="11.3077" y="11.3076" width="1.61538" height="1.61538" transform="rotate(90 11.3077 11.3076)" fill="currentColor"/>
  <rect x="9.69232" y="11.3076" width="1.61538" height="1.61538" transform="rotate(90 9.69232 11.3076)" fill="currentColor"/>
  <rect x="8.0769" y="11.3076" width="1.61538" height="1.61538" transform="rotate(90 8.0769 11.3076)" fill="currentColor"/>
  <rect x="6.46155" y="11.3076" width="1.61538" height="1.61538" transform="rotate(90 6.46155 11.3076)" fill="currentColor"/>
  <rect x="4.84613" y="11.3076" width="1.61538" height="1.61538" transform="rotate(90 4.84613 11.3076)" fill="currentColor"/>
  <rect x="17.7692" y="12.9229" width="1.61538" height="1.61538" transform="rotate(90 17.7692 12.9229)" fill="currentColor"/>
  <rect x="4.84613" y="12.9229" width="1.61538" height="1.61538" transform="rotate(90 4.84613 12.9229)" fill="currentColor"/>
  <rect x="17.7692" y="14.5386" width="1.61538" height="1.61538" transform="rotate(90 17.7692 14.5386)" fill="currentColor"/>
  <rect x="4.84613" y="14.5386" width="1.61538" height="1.61538" transform="rotate(90 4.84613 14.5386)" fill="currentColor"/>
  <rect x="17.7692" y="16.1538" width="1.61538" height="1.61538" transform="rotate(90 17.7692 16.1538)" fill="currentColor"/>
  <rect x="4.84613" y="16.1538" width="1.61538" height="1.61538" transform="rotate(90 4.84613 16.1538)" fill="currentColor"/>
  <rect x="4.84613" y="17.769" width="1.61538" height="1.61538" transform="rotate(90 4.84613 17.769)" fill="currentColor"/>
  <rect x="17.7692" y="17.769" width="1.61538" height="1.61538" transform="rotate(90 17.7692 17.769)" fill="currentColor"/>
  <rect x="19.3846" y="19.3848" width="1.61538" height="1.61538" transform="rotate(90 19.3846 19.3848)" fill="currentColor"/>
  <rect x="17.7692" y="19.3848" width="1.61538" height="1.61538" transform="rotate(90 17.7692 19.3848)" fill="currentColor"/>
  <rect x="16.1539" y="19.3848" width="1.61538" height="1.61538" transform="rotate(90 16.1539 19.3848)" fill="currentColor"/>
  <rect x="14.5385" y="19.3848" width="1.61538" height="1.61538" transform="rotate(90 14.5385 19.3848)" fill="currentColor"/>
  <rect x="12.9231" y="19.3848" width="1.61538" height="1.61538" transform="rotate(90 12.9231 19.3848)" fill="currentColor"/>
  <rect x="11.3077" y="19.3848" width="1.61538" height="1.61538" transform="rotate(90 11.3077 19.3848)" fill="currentColor"/>
  <rect x="9.69232" y="19.3848" width="1.61538" height="1.61538" transform="rotate(90 9.69232 19.3848)" fill="currentColor"/>
  <rect x="8.0769" y="19.3848" width="1.61538" height="1.61538" transform="rotate(90 8.0769 19.3848)" fill="currentColor"/>
  <rect x="6.46155" y="19.3848" width="1.61538" height="1.61538" transform="rotate(90 6.46155 19.3848)" fill="currentColor"/>
  <rect x="4.84613" y="19.3848" width="1.61538" height="1.61538" transform="rotate(90 4.84613 19.3848)" fill="currentColor"/>
  <rect x="3.23077" y="19.3848" width="1.61538" height="1.61538" transform="rotate(90 3.23077 19.3848)" fill="currentColor"/>
  <rect x="21" y="21" width="1.61538" height="1.61538" transform="rotate(-180 21 21)" fill="currentColor"/>
  <rect x="21" y="19.3848" width="1.61538" height="1.61538" transform="rotate(-180 21 19.3848)" fill="currentColor"/>
  <rect x="21" y="17.769" width="1.61538" height="1.61538" transform="rotate(-180 21 17.769)" fill="currentColor"/>
  <rect x="21" y="16.1538" width="1.61538" height="1.61538" transform="rotate(-180 21 16.1538)" fill="currentColor"/>
  <rect x="21" y="14.5386" width="1.61538" height="1.61538" transform="rotate(-180 21 14.5386)" fill="currentColor"/>
  <rect x="21" y="12.9229" width="1.61538" height="1.61538" transform="rotate(-180 21 12.9229)" fill="currentColor"/>
  <rect x="21" y="11.3076" width="1.61538" height="1.61538" transform="rotate(-180 21 11.3076)" fill="currentColor"/>
  <rect x="21" y="9.69238" width="1.61538" height="1.61538" transform="rotate(-180 21 9.69238)" fill="currentColor"/>
  <rect x="21" y="8.07715" width="1.61538" height="1.61538" transform="rotate(-180 21 8.07715)" fill="currentColor"/>
  <rect x="21" y="6.46143" width="1.61538" height="1.61538" transform="rotate(-180 21 6.46143)" fill="currentColor"/>
  <rect x="21" y="4.84619" width="1.61538" height="1.61538" transform="rotate(-180 21 4.84619)" fill="currentColor"/>
</symbol>
<symbol id="floppy-big">
  <rect width="3.00001" height="3" fill="currentColor"/>
  <rect y="3" width="3.00001" height="3" fill="currentColor"/>
  <rect y="6" width="3.00001" height="3" fill="currentColor"/>
  <rect y="9" width="3.00001" height="3" fill="currentColor"/>
  <rect y="12" width="3.00001" height="3" fill="currentColor"/>
  <rect y="15" width="3.00001" height="3" fill="currentColor"/>
  <rect y="18" width="3.00001" height="3" fill="currentColor"/>
  <rect y="21" width="3.00001" height="3" fill="currentColor"/>
  <rect y="24" width="3.00001" height="3" fill="currentColor"/>
  <rect y="27" width="3.00001" height="3" fill="currentColor"/>
  <rect y="30" width="3.00001" height="3" fill="currentColor"/>
  <rect y="33" width="3.00001" height="3" fill="currentColor"/>
  <rect y="36" width="3.00001" height="3" fill="currentColor"/>
  <rect x="33" width="3" height="3.00001" transform="rotate(90 33 0)" fill="currentColor"/>
  <rect x="30.0031" width="3" height="3.00001" transform="rotate(90 30.0031 0)" fill="currentColor"/>
  <rect x="26.9998" width="3" height="3.00001" transform="rotate(90 26.9998 0)" fill="currentColor"/>
  <rect x="23.9998" width="3" height="3.00001" transform="rotate(90 23.9998 0)" fill="currentColor"/>
  <rect x="20.999" width="3" height="3.00001" transform="rotate(90 20.999 0)" fill="currentColor"/>
  <rect x="17.9998" width="3" height="3.00001" transform="rotate(90 17.9998 0)" fill="currentColor"/>
  <rect x="14.999" width="3" height="3.00001" transform="rotate(90 14.999 0)" fill="currentColor"/>
  <rect x="11.9999" width="3" height="3.00001" transform="rotate(90 11.9999 0)" fill="currentColor"/>
  <rect x="8.99609" width="3" height="3.00001" transform="rotate(90 8.99609 0)" fill="currentColor"/>
  <rect x="5.99994" width="3" height="3.00001" transform="rotate(90 5.99994 0)" fill="currentColor"/>
  <rect x="36.0008" y="3" width="3" height="3.00001" transform="rotate(90 36.0008 3)" fill="currentColor"/>
  <rect x="8.99609" y="6" width="3" height="3.00001" transform="rotate(90 8.99609 6)" fill="currentColor"/>
  <rect x="8.99609" y="3" width="3" height="3.00001" transform="rotate(90 8.99609 3)" fill="currentColor"/>
  <rect x="8.99609" y="9" width="3" height="3.00001" transform="rotate(90 8.99609 9)" fill="currentColor"/>
  <rect x="30.0031" y="6" width="3" height="3.00001" transform="rotate(90 30.0031 6)" fill="currentColor"/>
  <rect x="30.0031" y="3" width="3" height="3.00001" transform="rotate(90 30.0031 3)" fill="currentColor"/>
  <rect x="30.0031" y="9" width="3" height="3.00001" transform="rotate(90 30.0031 9)" fill="currentColor"/>
  <rect x="23.9998" y="6" width="3" height="3.00001" transform="rotate(90 23.9998 6)" fill="currentColor"/>
  <rect x="23.9998" y="3" width="3" height="3.00001" transform="rotate(90 23.9998 3)" fill="currentColor"/>
  <rect x="23.9998" y="9" width="3" height="3.00001" transform="rotate(90 23.9998 9)" fill="currentColor"/>
  <rect x="30.0031" y="12" width="3" height="3.00001" transform="rotate(90 30.0031 12)" fill="currentColor"/>
  <rect x="26.9998" y="12" width="3" height="3.00001" transform="rotate(90 26.9998 12)" fill="currentColor"/>
  <rect x="23.9998" y="12" width="3" height="3.00001" transform="rotate(90 23.9998 12)" fill="currentColor"/>
  <rect x="20.999" y="12" width="3" height="3.00001" transform="rotate(90 20.999 12)" fill="currentColor"/>
  <rect x="17.9998" y="12" width="3" height="3.00001" transform="rotate(90 17.9998 12)" fill="currentColor"/>
  <rect x="14.999" y="12" width="3" height="3.00001" transform="rotate(90 14.999 12)" fill="currentColor"/>
  <rect x="11.9999" y="12" width="3" height="3.00001" transform="rotate(90 11.9999 12)" fill="currentColor"/>
  <rect x="8.99609" y="12" width="3" height="3.00001" transform="rotate(90 8.99609 12)" fill="currentColor"/>
  <rect x="33" y="21" width="3" height="3.00001" transform="rotate(90 33 21)" fill="currentColor"/>
  <rect x="30.0031" y="21" width="3" height="3.00001" transform="rotate(90 30.0031 21)" fill="currentColor"/>
  <rect x="26.9998" y="21" width="3" height="3.00001" transform="rotate(90 26.9998 21)" fill="currentColor"/>
  <rect x="23.9998" y="21" width="3" height="3.00001" transform="rotate(90 23.9998 21)" fill="currentColor"/>
  <rect x="20.999" y="21" width="3" height="3.00001" transform="rotate(90 20.999 21)" fill="currentColor"/>
  <rect x="17.9998" y="21" width="3" height="3.00001" transform="rotate(90 17.9998 21)" fill="currentColor"/>
  <rect x="14.999" y="21" width="3" height="3.00001" transform="rotate(90 14.999 21)" fill="currentColor"/>
  <rect x="11.9999" y="21" width="3" height="3.00001" transform="rotate(90 11.9999 21)" fill="currentColor"/>
  <rect x="8.99609" y="21" width="3" height="3.00001" transform="rotate(90 8.99609 21)" fill="currentColor"/>
  <rect x="33" y="24" width="3" height="3.00001" transform="rotate(90 33 24)" fill="currentColor"/>
  <rect x="8.99609" y="24" width="3" height="3.00001" transform="rotate(90 8.99609 24)" fill="currentColor"/>
  <rect x="33" y="27" width="3" height="3.00001" transform="rotate(90 33 27)" fill="currentColor"/>
  <rect x="8.99609" y="27" width="3" height="3.00001" transform="rotate(90 8.99609 27)" fill="currentColor"/>
  <rect x="33" y="30" width="3" height="3.00001" transform="rotate(90 33 30)" fill="currentColor"/>
  <rect x="8.99609" y="30" width="3" height="3.00001" transform="rotate(90 8.99609 30)" fill="currentColor"/>
  <rect x="8.99609" y="33" width="3" height="3.00001" transform="rotate(90 8.99609 33)" fill="currentColor"/>
  <rect x="33" y="33" width="3" height="3.00001" transform="rotate(90 33 33)" fill="currentColor"/>
  <rect x="36.0008" y="36" width="3" height="3.00001" transform="rotate(90 36.0008 36)" fill="currentColor"/>
  <rect x="33" y="36" width="3" height="3.00001" transform="rotate(90 33 36)" fill="currentColor"/>
  <rect x="30.0031" y="36" width="3" height="3.00001" transform="rotate(90 30.0031 36)" fill="currentColor"/>
  <rect x="26.9998" y="36" width="3" height="3.00001" transform="rotate(90 26.9998 36)" fill="currentColor"/>
  <rect x="23.9998" y="36" width="3" height="3.00001" transform="rotate(90 23.9998 36)" fill="currentColor"/>
  <rect x="20.999" y="36" width="3" height="3.00001" transform="rotate(90 20.999 36)" fill="currentColor"/>
  <rect x="17.9998" y="36" width="3" height="3.00001" transform="rotate(90 17.9998 36)" fill="currentColor"/>
  <rect x="14.999" y="36" width="3" height="3.00001" transform="rotate(90 14.999 36)" fill="currentColor"/>
  <rect x="11.9999" y="36" width="3" height="3.00001" transform="rotate(90 11.9999 36)" fill="currentColor"/>
  <rect x="8.99609" y="36" width="3" height="3.00001" transform="rotate(90 8.99609 36)" fill="currentColor"/>
  <rect x="5.99994" y="36" width="3" height="3.00001" transform="rotate(90 5.99994 36)" fill="currentColor"/>
  <rect x="39" y="39" width="3.00001" height="3" transform="rotate(-180 39 39)" fill="currentColor"/>
  <rect x="39" y="36" width="3.00001" height="3" transform="rotate(-180 39 36)" fill="currentColor"/>
  <rect x="39" y="33" width="3.00001" height="3" transform="rotate(-180 39 33)" fill="currentColor"/>
  <rect x="39" y="30" width="3.00001" height="3" transform="rotate(-180 39 30)" fill="currentColor"/>
  <rect x="39" y="27" width="3.00001" height="3" transform="rotate(-180 39 27)" fill="currentColor"/>
  <rect x="39" y="24" width="3.00001" height="3" transform="rotate(-180 39 24)" fill="currentColor"/>
  <rect x="39" y="21" width="3.00001" height="3" transform="rotate(-180 39 21)" fill="currentColor"/>
  <rect x="39" y="18" width="3.00001" height="3" transform="rotate(-180 39 18)" fill="currentColor"/>
  <rect x="39" y="15" width="3.00001" height="3" transform="rotate(-180 39 15)" fill="currentColor"/>
  <rect x="39" y="12" width="3.00001" height="3" transform="rotate(-180 39 12)" fill="currentColor"/>
  <rect x="39" y="9" width="3.00001" height="3" transform="rotate(-180 39 9)" fill="currentColor"/>
</symbol>
</svg>